<svg xmlns="http://www.w3.org/2000/svg" viewBox="0 0 48 48" id="Candidate"><g transform="translate(0 -1004.362)" fill="#000000" class="color000000 svgShape"><circle cx="24" cy="1028.362" r="24" fill="#1677ff" class="color239fdb svgShape"></circle><path style="line-height:normal;text-indent:0;text-align:start;text-decoration-line:none;text-decoration-style:solid;text-decoration-color:#000;text-transform:none;block-progression:tb;isolation:auto;mix-blend-mode:normal" fill="#ffffff" fill-rule="evenodd" d="M3.5 3a.5.5 0 0 0-.5.5v24.004a.5.5 0 0 0 .5.5h19a.5.5 0 0 0 .5-.5V24.54l3.492 3.523a1.47 1.47 0 0 0 2.078 0 .5.5 0 0 0 .002 0 1.49 1.49 0 0 0 .004-2.085l-1.047-1.055-.543-.551-.642-.646-.756-.764-.66-.664a.5.5 0 0 0-.002-.7l-1.213-1.224A5.087 5.087 0 0 0 23 15.469V7.536a.5.5 0 0 0 0-.024.5.5 0 0 0-.146-.362l-4-4a.5.5 0 0 0-.362-.146.5.5 0 0 0-.058.004.5.5 0 0 0-.09-.008H3.5ZM4 4h14v3.504a.5.5 0 0 0 .5.5H22v6.484c-1.953-1.443-4.712-1.288-6.469.485l-.027.03H6a.5.5 0 1 0 0 1h8.768a5 5 0 0 0-.637 2H6a.5.5 0 1 0 0 1h8.129c.108 1.127.566 2.227 1.42 3.089a4.977 4.977 0 0 0 5.39 1.12L22 24.286v2.719H4V4Zm15 .71 2.293 2.294H19V4.71zM5.918 6.005a.5.5 0 0 0 .05 1H17a.5.5 0 1 0 0-1H5.969a.5.5 0 0 0-.051 0zm.084 3a.5.5 0 0 0 .05 1H20a.5.5 0 1 0 0-1H6.053a.5.5 0 0 0-.051 0zm-.053 3a.5.5 0 0 0 .051 1h14a.5.5 0 1 0 0-1H6a.5.5 0 0 0-.05 0zm13.106 2.504c1.02.003 2.043.4 2.828 1.191 1.57 1.584 1.576 4.127.017 5.7a3.961 3.961 0 0 1-5.648-.018 4.059 4.059 0 0 1-.895-1.377H20a.5.5 0 0 0 .203-.041.983.983 0 0 0 .797-.96.983.983 0 0 0-.797-.958.5.5 0 0 0-.203-.041h-4.88c.043-.341.115-.677.245-1H20a.5.5 0 0 0 .203-.041.983.983 0 0 0 .797-.96.983.983 0 0 0-.797-.958.5.5 0 0 0-.203-.041h-2.832a3.926 3.926 0 0 1 1.887-.496zM5.949 21.004a.5.5 0 0 0 .051 1h7.11a.5.5 0 1 0 0-1H6a.5.5 0 0 0-.05 0zm17.291.316.625.63-1.386 1.398-.618-.625a4.955 4.955 0 0 0 1.38-1.403zm.983 1.69.654.66.756.762.642.648.545.549 1.045 1.055a.475.475 0 0 1-.004.677c-.195.194-.47.197-.658 0a.5.5 0 0 0-.002 0l-3.644-3.68.666-.671Z" color="#000" font-family="sans-serif" font-weight="400" overflow="visible" transform="translate(11 1012.362)" class="colorffffff svgShape"></path></g></svg>